<svg xmlns="http://www.w3.org/2000/svg" version="1.1" xmlns:xlink="http://www.w3.org/1999/xlink" xmlns:svgjs="http://svgjs.dev/svgjs" viewBox="0 0 800 400"><path d="M152.0179443359375,222.42152404785156C205.6233271789551,221.65022270202635,381.2914976501465,222.6905793762207,401.3453063964844,218.83407592773438C421.39911514282227,214.97757247924804,263.99551544189455,202.9416960144043,245.29147338867188,204.4842987060547C226.58743133544922,206.02690139770507,261.90132949829103,231.7937240600586,314.3497619628906,226.00897216796875C366.7981944274902,220.2242202758789,454.3363235473633,198.5964154815674,489.2376708984375,177.57847595214844C524.1390182495118,156.56053642272948,478.2242127990723,143.86994892120362,476.6816101074219,128.25111389160156C475.13900741577146,112.63227886199951,466.25110855102537,109.56053314208984,482.0627746582031,104.93273162841797C497.8744407653809,100.3049301147461,534.4125770568847,101.90582637786865,550.2242431640625,106.72645568847656C566.0359092712403,111.54708499908448,562.354287109375,123.11211082458496,555.6054077148438,127.35426330566406C548.8565283203125,131.59641578674317,528.0897225952149,137.44842933654786,518.8341064453125,126.4573974609375C509.5784902954102,115.46636558532715,500.2152349853516,64.47085159301758,512.5560302734375,76.23318481445312C524.8968255615234,87.99551803588867,569.2914389038086,157.2556118774414,576.233154296875,181.16592407226562C583.1748696899414,205.07623626708985,544.4574197387695,176.06725830078125,544.8430786132812,187.44393920898438C545.228737487793,198.8206201171875,558.5515829467773,224.82511268615724,578.0269165039062,234.08071899414062C597.5022500610352,243.336325302124,619.0358972167969,232.03587356567382,635.426025390625,230.49327087402344C651.8161535644531,228.95066818237305,650.2107510375977,227.67712409973146,654.2600708007812,226.90582275390625" fill="none" stroke-width="9" stroke="url(&quot;#SvgjsLinearGradient1000&quot;)" stroke-linecap="round" stroke-dasharray="0 0"></path><defs><linearGradient id="SvgjsLinearGradient1000"><stop stop-color="hsl(185, 53%, 55%)" offset="0"></stop><stop stop-color="hsl(0, 73%, 55%)" offset="1"></stop></linearGradient></defs></svg>