<svg width="511" height="21" viewBox="0 0 511 21" fill="none" xmlns="http://www.w3.org/2000/svg">
<path d="M486.968 0.84423C477.168 0.299842 359.421 -0.746735 292.406 0.844238C163.42 3.90643 48.8451 11.3918 22.1828 14.1137C-4.47918 16.8356 -5.42964 18.7134 10.4237 19.3939C26.9972 20.1052 55.3303 19.8979 72.6247 18.1966C69.9826 18.9905 68.0715 21.4791 72.6247 20.9186C76.7186 20.4146 223.229 14.7942 231.876 14.7942C240.524 14.7942 262.863 15.4747 270.789 14.7942C278.715 14.1137 467.901 15.7075 480.482 15.8149C501.149 15.9914 507.636 15.9914 509.307 15.4747C512.037 14.6304 504.984 10.4845 501.381 9.01006C510.517 10.2073 511.959 9.52679 510.517 7.82559C507.828 4.65076 499.217 1.52472 486.968 0.84423Z" fill="#36807F"/>
</svg>
